<?xml version="1.0" encoding="UTF-8" standalone="no"?>
<!-- Created with Inkscape (http://www.inkscape.org/) -->

<svg
   width="109.93801mm"
   height="127.99607mm"
   viewBox="0 0 109.93801 127.99607"
   version="1.1"
   id="svg1"
   xml:space="preserve"
   inkscape:version="1.4.2 (f4327f4, 2025-05-13)"
   sodipodi:docname="eglisedelacroix.svg"
   xmlns:inkscape="http://www.inkscape.org/namespaces/inkscape"
   xmlns:sodipodi="http://sodipodi.sourceforge.net/DTD/sodipodi-0.dtd"
   xmlns="http://www.w3.org/2000/svg"
   xmlns:svg="http://www.w3.org/2000/svg"><sodipodi:namedview
     id="namedview1"
     pagecolor="#505050"
     bordercolor="#ffffff"
     borderopacity="1"
     inkscape:showpageshadow="0"
     inkscape:pageopacity="0"
     inkscape:pagecheckerboard="1"
     inkscape:deskcolor="#d1d1d1"
     inkscape:document-units="mm"
     inkscape:zoom="0.5"
     inkscape:cx="197"
     inkscape:cy="540"
     inkscape:window-width="1920"
     inkscape:window-height="1009"
     inkscape:window-x="-8"
     inkscape:window-y="-8"
     inkscape:window-maximized="1"
     inkscape:current-layer="layer1"><inkscape:page
       x="0"
       y="0"
       width="109.93801"
       height="127.99607"
       id="page2"
       margin="0"
       bleed="0" /></sodipodi:namedview><defs
     id="defs1" /><g
     inkscape:label="Calque 1"
     inkscape:groupmode="layer"
     id="layer1"
     transform="translate(-155.36364,-160.20112)"><path
       id="path83"
       style="fill:#2c2c2c;fill-opacity:1;stroke:none;stroke-width:2.04036;stroke-linejoin:round;stroke-miterlimit:3.8;stroke-dasharray:none;stroke-opacity:1;paint-order:stroke fill markers"
       inkscape:transform-center-x="-7.4871083e-05"
       inkscape:transform-center-y="-34.48498"
       d="m 210.33405,160.20111 c -14.50611,0 -14.47684,11.28461 -14.47684,11.28461 0.10446,2.2924 4.90594,14.69332 8.084,22.71682 h 12.83677 c 3.20329,-7.942 7.9906,-20.17453 8.02712,-22.71682 0,0 -0.1386,-11.28461 -14.47105,-11.28461 z m 27.88381,10.87897 c -4.42614,0.14583 -7.22989,2.9651 -7.22989,2.9651 -1.50416,1.65682 -6.639,13.22597 -10.07863,21.16186 v 10.35685 h 7.26392 c 7.71704,-3.26256 21.34741,-9.16721 23.28433,-11.0491 0,0 7.88842,-8.06683 -2.25868,-18.21383 -4.16695,-4.16705 -7.95224,-5.32028 -10.98105,-5.22088 z m -55.81882,0.0517 c -3.03419,-0.0931 -6.81349,1.05322 -10.93554,5.17558 -10.25736,10.25715 -2.25579,18.21373 -2.25579,18.21373 1.80846,1.64235 15.65469,7.71745 23.39221,11.0491 h 7.15325 v -7.01992 -3.47873 c -3.36568,-7.89276 -8.35551,-19.24936 -10.07595,-21.02007 0,0 -2.84336,-2.78306 -7.27818,-2.91969 z m -15.75078,29.56929 c 0,0 -11.28461,0.12308 -11.28461,14.47405 0,14.5058 11.28461,14.47674 11.28461,14.47674 2.0029,-0.0931 11.66554,-3.7552 19.50483,-6.82414 v -15.37915 c -7.75034,-3.08032 -17.28804,-6.71554 -19.50483,-6.7475 z m 87.36588,0 c -2.0029,0.0931 -11.66005,3.7554 -19.49914,6.82414 v 15.37915 c 7.75024,3.08022 17.28245,6.71554 19.49914,6.7475 0,0 11.28751,-0.12722 11.28751,-14.47674 0,-14.50591 -11.28751,-14.47405 -11.28751,-14.47405 z m -61.30934,23.99085 c -7.67846,3.24395 -21.54476,9.24282 -23.49709,11.14002 0,0 -6.39377,6.58977 -0.15824,15.34213 l 3.83628,-4.27317 c 0.031,-0.031 0.0517,-0.062 0.0827,-0.0827 0.003,-0.003 0.005,-0.005 0.008,-0.008 0.10343,-0.10343 0.2172,-0.18927 0.33718,-0.26374 h 0.003 c 0.12515,-0.0827 0.25753,-0.1386 0.3982,-0.1841 0.13756,-0.0517 0.28029,-0.0828 0.42612,-0.0931 h 0.003 0.003 c 0.0517,-0.005 0.10343,-0.005 0.15307,-0.008 0.0931,-5.2e-4 0.19135,0.006 0.2834,0.0207 0.003,3.1e-4 0.005,-5.1e-4 0.008,0 0.004,5.2e-4 0.005,0.002 0.008,0.003 0.13963,0.0207 0.27408,0.0517 0.40337,0.10756 0.008,0.005 0.031,0.005 0.0414,0.008 0,0 2.62751,1.11507 8.64014,1.11507 3.20847,0 4.74491,-0.25444 7.01134,-0.54714 1.09852,-0.14273 2.36046,-0.28857 3.9753,-0.40027 1.72271,-3.75757 3.55867,-7.91842 5.07908,-11.42652 V 224.6939 Z m 28.20454,0 v 10.58947 c 1.48297,3.4779 3.27011,7.56975 4.96552,11.27613 1.67462,0.11377 2.95993,0.26271 4.08596,0.40854 2.26644,0.29478 3.80308,0.54818 7.01145,0.54818 5.8367,0 8.44672,-1.03326 8.59752,-1.09521 0.002,-9.3e-4 0.004,-0.002 0.005,-0.003 0.0207,-0.005 0.0414,-0.008 0.0517,-0.0207 0.13239,-0.0517 0.26685,-0.0828 0.40337,-0.10757 0.031,-0.005 0.0517,-0.008 0.0828,-0.0207 0.12411,-0.0207 0.24616,-0.0207 0.36924,-0.008 0.0517,0.003 0.0931,0.008 0.13549,0.0207 0.0827,0.008 0.15618,0.031 0.23271,0.0517 0.0517,0.0207 0.11378,0.031 0.17066,0.0517 0.004,0.001 0.005,0.001 0.008,0.003 0.0517,0.0207 0.10653,0.0517 0.15824,0.0827 0.0414,0.0207 0.0724,0.031 0.10757,0.0517 0.0621,0.0414 0.11998,0.0828 0.17893,0.12205 0.0414,0.031 0.0724,0.0517 0.10757,0.0827 0.0621,0.0517 0.12618,0.11481 0.1841,0.17894 l 3.84197,4.27885 c 6.33761,-8.83231 -0.15824,-15.34782 -0.15824,-15.34782 -1.8218,-1.65517 -15.90168,-7.82739 -23.59927,-11.14001 z"
       sodipodi:nodetypes="sccccsccccccscccccccccccsccccccccsccccccccccscscsscccscccccccccsscccccccscccccccccc" /><g
       id="g84"
       transform="matrix(4.5341284,0,0,4.5341284,-556.00385,-95.725654)"
       style="fill:#2c2c2c;fill-opacity:1;stroke:none;stroke-width:0.45;stroke-dasharray:none;stroke-opacity:1;paint-order:stroke fill markers"><path
         id="path84"
         style="color:#000000;fill:#2c2c2c;fill-opacity:1;stroke:none;stroke-width:0.45;stroke-miterlimit:3.8;stroke-dasharray:none;stroke-opacity:1;paint-order:stroke fill markers"
         d="m 167.63995,64.901628 v 2.505093 h -3.00073 v 2.302331 h 3.00073 v 5.788685 c 0.59544,0.103119 1.02327,0.349779 1.29917,0.610784 0.0582,0.0544 0.0298,0.06185 0.0757,0.117026 0.0464,-0.05576 0.021,-0.06185 0.0795,-0.117026 0.27601,-0.261099 0.70193,-0.507732 1.29666,-0.610784 v -5.788685 h 2.99948 v -2.301706 l -2.99948,-6.25e-4 v -2.505093 z" /></g><path
       style="color:#000000;fill:#2c2c2c;fill-opacity:1;stroke:none;stroke-width:3.84909;stroke-linejoin:round;stroke-miterlimit:3.8;stroke-dasharray:none;stroke-opacity:1;-inkscape-stroke:none;paint-order:stroke fill markers"
       d="m 201.37141,251.018 c -5.46973,0 -8.36253,0.30512 -10.62887,0.59989 -2.26644,0.29477 -3.80318,0.54817 -7.01165,0.54817 -6.01253,0 -8.64024,-1.11434 -8.64024,-1.11434 a 1.9247348,1.9247348 0 0 0 -2.64023,1.61153 l -2.3314,25.56069 a 1.9247348,1.9247348 0 0 0 1.11424,1.93733 c 0,0 1.04195,0.45405 2.81162,0.83984 1.76956,0.38579 4.39562,0.754 7.95451,0.754 a 1.9247348,1.9247348 0 0 0 0.0724,0 c 4.22248,-0.15825 6.34505,-0.6154 8.57177,-0.9774 2.21917,-0.35994 4.68068,-0.6516 10.09735,-0.59989 6.11089,0.17997 7.86887,4.69733 7.86887,4.69733 a 1.9247348,1.9247348 0 0 0 3.53158,0 c 0,0 1.77495,-4.51633 7.88604,-4.69733 5.39754,-0.0517 7.88201,0.24099 10.09735,0.59989 2.22673,0.362 4.33202,0.82019 8.55461,0.9774 a 1.9247348,1.9247348 0 0 0 0.0724,0 c 3.55888,0 6.20222,-0.36821 7.97168,-0.754 1.76967,-0.38579 2.79444,-0.83984 2.79444,-0.83984 a 1.9247348,1.9247348 0 0 0 1.11424,-1.93733 l -2.31432,-25.56069 a 1.9247348,1.9247348 0 0 0 -2.64013,-1.61153 c 0,0 -2.64468,1.11434 -8.65741,1.11434 -3.20847,0 -4.74512,-0.25443 -7.01166,-0.54817 -2.26633,-0.29477 -5.15903,-0.59989 -10.62887,-0.59989 -4.18928,0 -6.99645,1.44501 -8.64035,3.00006 -0.26477,0.2503 -0.14893,0.27823 -0.35993,0.53059 -0.20789,-0.25029 -0.0827,-0.28443 -0.34338,-0.53059 -1.64369,-1.55505 -4.46803,-3.00006 -8.65731,-3.00006 z m 0,3.84022 c 3.34593,0 5.02603,1.03325 6.00023,1.95418 0.9743,0.92155 1.16574,1.6287 1.16574,1.6287 a 1.9247348,1.9247348 0 0 0 3.6858,0 c 0,0 0.17479,-0.70746 1.14857,-1.6287 0.9743,-0.92155 2.6543,-1.95418 6.00033,-1.95418 5.33238,0 7.94106,0.28236 10.13158,0.56472 2.19063,0.28443 4.07696,0.59989 7.50884,0.59989 4.93263,0 6.3374,-0.67126 7.62881,-1.06294 l 2.0058,22.06366 c -0.31132,0.0931 -0.19341,0.0827 -0.754,0.20582 -1.47789,0.32167 -3.83225,0.66091 -7.06305,0.66919 -0.0207,-7.3e-4 -0.0207,5.1e-4 -0.031,0 -3.96847,-0.15101 -5.72221,-0.52956 -8.05743,-0.90914 -2.34504,-0.38166 -5.18509,-0.72401 -10.80035,-0.66919 a 1.9247348,1.9247348 0 0 0 -0.031,0 c -5.36455,0.15825 -7.97489,2.67591 -9.5317,4.69723 -1.55691,-2.02132 -4.15008,-4.53826 -9.51473,-4.69723 a 1.9247348,1.9247348 0 0 0 -0.0517,0 c -5.61526,-0.0517 -8.43814,0.28753 -10.78329,0.66919 -2.32539,0.37751 -4.08989,0.75606 -8.02308,0.90914 -3.29215,0 -5.63585,-0.34235 -7.13163,-0.66919 -0.57197,-0.12515 -0.45923,-0.12928 -0.77158,-0.22237 l 2.00579,-22.04649 c 1.29152,0.39096 2.69629,1.06294 7.62882,1.06294 3.43197,0 5.31821,-0.31546 7.50883,-0.59989 2.19052,-0.28443 4.79931,-0.56472 10.13179,-0.56472 z"
       id="path85" /><path
       style="color:#000000;fill:#2c2c2c;fill-opacity:1;stroke:none;stroke-width:3.84909;stroke-linejoin:round;stroke-miterlimit:3.8;stroke-dasharray:none;stroke-opacity:1;-inkscape-stroke:none;paint-order:stroke fill markers"
       d="m 174.36127,252.83753 -2.31785,25.56876 c 0,0 3.10525,1.42432 9.95617,1.42432 8.22664,-0.30719 7.7217,-1.69189 18.79211,-1.58308 7.11384,0.21099 9.58434,5.85128 9.58434,5.85128 0,0 2.4705,-5.6405 9.58424,-5.85128 11.07051,-0.1086 10.56547,1.2761 18.792,1.58308 6.85102,0 9.95627,-1.42432 9.95627,-1.42432 l -2.31784,-25.56876 c 0,0 -3.10494,1.261 -9.37563,1.261 -6.64023,0 -6.83303,-1.15654 -17.63545,-1.15654 -7.53521,0 -9.00359,4.95321 -9.00359,4.95321 0,0 -1.46838,-4.95321 -9.00369,-4.95321 -10.80233,0 -10.99512,1.15654 -17.63546,1.15654 -6.27059,0 -9.37562,-1.261 -9.37562,-1.261 z"
       id="path86" /><g
       id="g96"
       transform="matrix(5.4908482,0,0,5.4908482,-613.66639,-177.49541)"
       style="fill:#2c2c2c;fill-opacity:1"><path
         style="color:#000000;fill:#2c2c2c;fill-opacity:1;stroke-linejoin:round;stroke-miterlimit:3.8;-inkscape-stroke:none;paint-order:stroke fill markers"
         d="m 148.33398,82.59375 c -1.02261,-0.01005 -1.53769,0.0519 -1.96484,0.121094 -0.42548,0.06892 -0.74556,0.140519 -1.46875,0.167968 -0.594,-7.33e-4 -1.02218,-0.06405 -1.29297,-0.123046 -0.27241,-0.05935 -0.36719,-0.105469 -0.36719,-0.105469 a 0.35053504,0.35053504 0 0 0 -0.41992,0.101562 l -1.17969,1.488282 a 0.35053504,0.35053504 0 0 0 0.2754,0.568359 h 6.9746 a 0.35053504,0.35053504 0 0 0 0.25782,-0.111328 c 0,0 0.01,-0.0232 0.15039,-0.08594 0.14036,-0.06273 0.38536,-0.136718 0.77734,-0.136718 a 0.35053504,0.35053504 0 0 0 0.34961,-0.34961 v -0.11914 a 0.35053504,0.35053504 0 0 0 -0.0293,-0.140625 c 0,0 -0.57851,-1.231601 -2.05664,-1.275391 a 0.35053504,0.35053504 0 0 0 -0.006,0 z m -0.0137,0.701172 c 0.74373,0.02203 1.05722,0.333942 1.23438,0.580078 -0.18063,0.03651 -0.42228,0.04654 -0.54102,0.09961 -0.12862,0.05748 -0.14359,0.08586 -0.20898,0.136719 h -6.16407 L 143.22266,83.375 c 0.0863,0.02854 0.087,0.03778 0.23632,0.07031 0.32224,0.07021 0.8011,0.138672 1.44922,0.138672 a 0.35053504,0.35053504 0 0 0 0.0117,-0.002 c 0.76897,-0.02869 1.15494,-0.110081 1.56055,-0.175781 0.40433,-0.06549 0.85288,-0.120656 1.83984,-0.111328 z"
         id="path87" /><path
         style="color:#000000;fill:#2c2c2c;fill-opacity:1;stroke-linejoin:round;stroke-miterlimit:3.8;-inkscape-stroke:none;paint-order:stroke fill markers"
         d="m 141.91507,84.462082 6.97651,-1.6e-5 c 0,0 0.31057,-0.333954 1.18388,-0.333954 v -0.118133 c 0,0 -0.44972,-1.026864 -1.74529,-1.065246 -2.01616,-0.01982 -1.9245,0.231919 -3.42273,0.28782 -1.24772,0 -1.81315,-0.259109 -1.81315,-0.259109 z"
         id="path95" /></g><g
       id="g99"
       transform="matrix(5.4908482,0,0,5.4908482,-613.66639,-177.49541)"
       style="fill:#2c2c2c;fill-opacity:1"><path
         style="color:#000000;fill:#2c2c2c;fill-opacity:1;stroke-linejoin:round;stroke-miterlimit:3.8;-inkscape-stroke:none;paint-order:stroke fill markers"
         d="m 151.81055,82.59375 c -1.47812,0.04379 -2.05664,1.275391 -2.05664,1.275391 a 0.35053504,0.35053504 0 0 0 -0.0293,0.140625 v 0.11914 a 0.35053504,0.35053504 0 0 0 0.35156,0.34961 c 0.39197,0 0.63503,0.07399 0.77539,0.136718 0.14037,0.06273 0.15039,0.08594 0.15039,0.08594 a 0.35053504,0.35053504 0 0 0 0.25782,0.111328 h 6.97656 a 0.35053504,0.35053504 0 0 0 0.27344,-0.568359 l -1.17774,-1.488282 a 0.35053504,0.35053504 0 0 0 -0.42187,-0.101562 c 0,0 -0.0948,0.04612 -0.36719,0.105469 -0.27119,0.05908 -0.69758,0.122494 -1.29297,0.123046 -0.72318,-0.02745 -1.04132,-0.09905 -1.4668,-0.167968 -0.42715,-0.06919 -0.94418,-0.131147 -1.96679,-0.121094 a 0.35053504,0.35053504 0 0 0 -0.006,0 z m 0.0195,0.701172 c 0.98696,-0.0093 1.43551,0.04584 1.83984,0.111328 0.40562,0.0657 0.79158,0.14709 1.56055,0.175781 a 0.35053504,0.35053504 0 0 0 0.0137,0.002 c 0.64812,0 1.12699,-0.06847 1.44922,-0.138672 0.1482,-0.03229 0.14823,-0.04189 0.23437,-0.07031 l 0.58204,0.736328 h -6.16407 c -0.0654,-0.05082 -0.0788,-0.0794 -0.20703,-0.136719 -0.11922,-0.05328 -0.36133,-0.06501 -0.54297,-0.101562 0.17726,-0.245872 0.49318,-0.555356 1.23438,-0.578125 z"
         id="path98" /><path
         style="color:#000000;fill:#2c2c2c;fill-opacity:1;stroke-linejoin:round;stroke-miterlimit:3.8;-inkscape-stroke:none;paint-order:stroke fill markers"
         d="m 158.23584,84.462082 -6.97651,-1.6e-5 c 0,0 -0.31057,-0.333954 -1.18387,-0.333954 v -0.118133 c 0,0 0.44972,-1.026864 1.74528,-1.065246 2.01617,-0.01982 1.92451,0.231919 3.42274,0.28782 1.24772,0 1.81314,-0.259109 1.81314,-0.259109 z"
         id="path99" /></g><g
       id="g101"
       transform="matrix(5.4908482,0,0,5.4908482,-613.66639,-177.49541)"
       style="fill:#2c2c2c;fill-opacity:1"><path
         style="color:#000000;fill:#2c2c2c;fill-opacity:1;stroke-linejoin:round;stroke-miterlimit:3.8;-inkscape-stroke:none;paint-order:stroke fill markers"
         d="m 143.51367,78.021484 a 0.35053504,0.35053504 0 0 0 -0.25781,0.117188 l -1.04688,1.166015 A 0.35053504,0.35053504 0 0 0 142.12109,79.5 l -0.55468,4.921875 a 0.35053504,0.35053504 0 0 0 0.62109,0.259766 l 1.19531,-1.480469 a 0.35053504,0.35053504 0 0 0 0.0781,-0.189453 l 0.40429,-4.609375 a 0.35053504,0.35053504 0 0 0 -0.35156,-0.38086 z m -0.4375,1.367188 -0.30469,3.455078 -0.37304,0.462891 0.4082,-3.617188 z"
         id="path100" /><path
         style="color:#000000;fill:#2c2c2c;fill-opacity:1;stroke-linejoin:round;stroke-miterlimit:3.8;-inkscape-stroke:none;paint-order:stroke fill markers"
         d="m 142.4703,79.539586 1.04625,-1.167185 -0.40573,4.608076 -1.19575,1.481605 z"
         id="path101" /></g><g
       id="g103"
       transform="matrix(5.4908482,0,0,5.4908482,-613.66639,-177.49541)"
       style="fill:#2c2c2c;fill-opacity:1"><path
         style="color:#000000;fill:#2c2c2c;fill-opacity:1;stroke-linejoin:round;stroke-miterlimit:3.8;-inkscape-stroke:none;paint-order:stroke fill markers"
         d="m 156.49414,78.050781 a 0.35053504,0.35053504 0 0 0 -0.20898,0.351563 l 0.40625,4.609375 a 0.35053504,0.35053504 0 0 0 0.0762,0.189453 l 1.19531,1.480469 a 0.35053504,0.35053504 0 0 0 0.62109,-0.259766 L 158.0293,79.5 a 0.35053504,0.35053504 0 0 0 -0.0879,-0.195313 l -1.04688,-1.166015 a 0.35053504,0.35053504 0 0 0 -0.40039,-0.08789 z m 0.58203,1.339844 0.26758,0.298828 0.4082,3.617188 -0.37304,-0.462891 z"
         id="path102" /><path
         style="color:#000000;fill:#2c2c2c;fill-opacity:1;stroke-linejoin:round;stroke-miterlimit:3.8;-inkscape-stroke:none;paint-order:stroke fill markers"
         d="m 157.68063,79.539586 -1.04627,-1.167185 0.40573,4.608076 1.19575,1.481605 z"
         id="path103" /></g></g></svg>
